<svg width="29" height="14" viewBox="0 0 29 14" fill="none" xmlns="http://www.w3.org/2000/svg">
<path d="M20.605 13.819C20.295 13.819 19.99 13.675 19.794 13.406C19.47 12.959 19.569 12.333 20.017 12.01L26.389 7.39305C26.552 7.27505 26.645 7.14105 26.645 7.02505C26.646 6.90905 26.553 6.77405 26.39 6.65505L20.012 1.98805C19.567 1.66205 19.47 1.03605 19.796 0.591048C20.121 0.145048 20.745 0.0480493 21.193 0.374049L27.571 5.04105C28.255 5.54105 28.646 6.26605 28.644 7.02905C28.643 7.79205 28.248 8.51505 27.562 9.01205L21.19 13.6291C21.014 13.7571 20.809 13.819 20.605 13.819Z" fill="black"/>
<path d="M1 6.5H26C26.2761 6.5 26.5 6.72386 26.5 7C26.5 7.27614 26.2761 7.5 26 7.5H0.999999C0.723857 7.5 0.5 7.27614 0.5 7C0.5 6.72386 0.723858 6.5 1 6.5Z" stroke="black"/>
</svg>
