<svg width="38" height="50" viewBox="0 0 38 50" fill="none" xmlns="http://www.w3.org/2000/svg">
<path fill-rule="evenodd" clip-rule="evenodd" d="M36.3467 29.4098C37.8096 29.8728 38.1669 31.1758 37.1447 32.3202L23.0065 48.1475C22.4081 48.8175 21.4696 49.2845 20.5007 49.4637C20.0152 49.8018 19.425 50 18.7885 50C18.1178 50 17.4984 49.7799 16.9988 49.4079C16.1124 49.2016 15.2724 48.7566 14.7211 48.1394L0.582958 32.312C-0.439266 31.1677 -0.082016 29.8646 1.3809 29.4016C2.84381 28.9386 4.85842 29.491 5.88064 30.6353L15.7885 41.727L15.7885 3C15.7885 1.34315 17.1317 0 18.7885 0C20.4454 0 21.7885 1.34315 21.7885 3V41.9037L31.847 30.6435C32.8692 29.4992 34.8838 28.9468 36.3467 29.4098Z" fill="#F3EBCB"/>
</svg>
