<svg width="371" height="297" viewBox="0 0 371 297" fill="none" xmlns="http://www.w3.org/2000/svg">
<path d="M233.981 121.988C221.185 104.643 198.275 108.136 189.135 110.424C184.138 111.749 179.629 113.315 175.364 114.52C163.909 117.772 152.941 120.904 142.826 120.904C141.486 120.904 140.145 120.783 138.804 120.663C133.442 120.181 128.324 118.495 123.815 115.604C118.331 112.231 114.797 107.774 112.969 102.354C112.482 100.909 112.116 99.4634 111.994 97.8976C111.385 93.9227 111.507 89.9479 112.482 86.3344C113.091 84.2868 116.625 74.4099 128.568 73.3258C136.002 72.6031 141.12 77.3007 142.948 82.3596C144.654 87.0571 143.314 91.7547 139.779 94.1637C137.098 95.85 132.467 96.4522 130.274 93.4409C132.589 93.3205 135.027 91.3933 135.88 89.8275C136.733 88.0207 136.367 85.9731 134.783 84.0459C132.589 81.8778 129.543 81.2755 126.618 82.48C124.303 83.4436 121.987 85.7322 120.647 88.9843C119.794 91.2729 119.55 93.6818 120.037 96.0908C120.768 100.427 123.449 107.172 132.589 109.34C133.808 109.581 135.27 109.822 136.733 109.943C136.855 109.943 136.855 109.943 136.977 109.943C140.998 110.304 146.116 110.183 152.332 109.22C159.156 108.015 166.346 105.968 173.414 104.041C191.207 98.9817 221.064 90.1888 247.508 114.52L182.067 49.8381L147.457 84.0459C147.335 82.9618 147.091 81.9982 146.726 80.9142C145.751 78.1438 144.045 75.4939 141.607 73.4463L162.568 52.7289C168.54 39.5998 174.755 31.0479 177.558 27.5548C177.192 27.6753 176.826 27.9162 176.461 28.0366L174.998 28.7593C173.902 29.3616 172.683 29.9638 171.343 30.807C170.977 29.8434 170.733 28.7593 170.489 27.6753C170.246 29.0002 170.124 30.4456 170.002 31.7706C164.396 34.3 155.622 39.9612 155.622 39.9612C155.378 30.2047 164.031 22.7368 164.031 22.7368C165.371 22.6164 166.833 22.496 168.174 22.496C167.443 22.1346 166.833 21.7732 166.102 21.4119C168.418 20.0869 170.368 19.6052 172.074 19.4847C170.124 18.0393 168.174 16.7144 166.224 15.6303L168.661 11.6555L163.056 13.944C162.203 13.5826 161.35 13.1009 160.618 12.86L159.765 12.4986C159.522 12.3782 159.278 12.2577 159.034 12.2577L161.228 8.76465L156.231 11.2941C151.844 9.96915 149.163 9.84871 149.163 9.84871C149.163 9.84871 151.235 11.0532 153.306 12.86C122.84 24.3027 101.27 53.4516 101.27 87.5389C101.27 131.624 137.464 167.397 182.067 167.397C213.63 167.397 240.928 149.45 254.211 123.433C243.609 120.422 233.981 121.988 233.981 121.988ZM183.529 78.2643V70.6759V65.3761C189.622 66.0988 194.375 71.1577 194.375 77.4211V79.1074H183.529V78.2643ZM183.529 81.8778H194.375V92.5978H183.529V81.8778ZM169.88 77.4211C169.88 71.1577 174.633 66.0988 180.726 65.3761V70.6759V78.0234V79.1074H169.88V77.4211ZM169.88 81.8778H180.726V92.5978H169.88V81.8778Z" fill="#E5542C"/>
<path d="M184.87 14.3059C192.669 7.44025 204.977 13.7036 208.999 16.1126C205.952 15.9922 203.149 15.9922 200.59 16.2331L197.422 14.4264L199.615 16.2331C197.544 16.474 195.594 16.8353 193.888 17.3171L193.156 17.558C192.425 17.7989 191.816 17.9194 191.207 18.1603L188.038 15.149L189.988 18.5216C183.529 21.0511 180.848 24.4237 180.848 24.4237C207.536 8.52429 217.773 37.4323 217.773 37.4323C217.773 37.4323 215.092 35.5051 210.827 33.2165L208.877 28.8803L208.633 32.1325C207.78 31.6507 206.927 31.2893 206.074 30.8075L202.784 26.2304L204.246 29.9644C202.54 29.1212 200.712 28.3985 198.884 27.6758C205.709 34.3006 200.712 48.1523 200.712 48.1523C200.712 48.1523 199.981 45.7433 197.787 42.1298L198.884 36.7096L196.203 39.8413C196.081 39.6004 195.959 39.4799 195.716 39.239L195.228 38.5163C194.741 37.9141 194.131 37.3118 193.644 36.5891L194.375 30.6871L191.328 34.1801C189.744 32.6143 183.895 28.6394 180.726 27.194C176.948 32.4938 173.536 38.3959 170.611 44.4184L182.067 33.0961L259.573 110.064C261.645 102.957 262.863 95.3687 262.863 87.5395C262.863 84.6487 262.741 81.8783 262.376 79.108L236.906 73.5673H261.645H291.989L260.06 66.7016C258.476 61.1609 256.404 55.7407 253.723 50.6818L223.013 46.2251H251.286H275.537L247.143 40.0822C232.763 20.8102 209.852 8.2834 184.017 7.68115C184.87 9.4879 185.357 11.656 184.87 14.3059Z" fill="#E5542C"/>
<path d="M171.83 7.44018C175.12 10.0901 177.801 15.0285 178.898 23.5805C179.142 23.9418 179.263 24.3032 179.385 24.6645C179.385 24.5441 179.385 24.4236 179.507 24.3032C179.507 19.4852 178.776 15.5103 177.801 12.1377L180.604 11.2946L177.192 10.331C176.704 8.88557 176.095 7.56062 175.486 6.47657L177.435 5.87432L174.876 5.27207C173.17 2.26083 171.586 0.81543 171.586 0.81543C171.586 0.93588 172.195 3.94713 171.83 7.44018Z" fill="#E5542C"/>
<path d="M233.981 121.988C221.185 104.643 198.275 108.136 189.135 110.424C184.138 111.749 179.629 113.315 175.364 114.52C163.909 117.772 152.941 120.904 142.826 120.904C141.486 120.904 140.145 120.783 138.804 120.663C133.442 120.181 128.324 118.495 123.815 115.604C118.331 112.231 114.797 107.774 112.969 102.354C112.482 100.909 112.116 99.4634 111.994 97.8976C111.385 93.9227 111.507 89.9479 112.482 86.3344C113.091 84.2868 116.625 74.4099 128.568 73.3258C136.002 72.6031 141.12 77.3007 142.948 82.3596C144.654 87.0571 143.314 91.7547 139.779 94.1637C137.098 95.85 132.467 96.4522 130.274 93.4409C132.589 93.3205 135.027 91.3933 135.88 89.8275C136.733 88.0207 136.367 85.9731 134.783 84.0459C132.589 81.8778 129.543 81.2755 126.618 82.48C124.303 83.4436 121.987 85.7322 120.647 88.9843C119.794 91.2729 119.55 93.6818 120.037 96.0908C120.768 100.427 123.449 107.172 132.589 109.34C133.808 109.581 135.27 109.822 136.733 109.943C136.855 109.943 136.855 109.943 136.977 109.943C140.998 110.304 146.116 110.183 152.332 109.22C159.156 108.015 166.346 105.968 173.414 104.041C191.207 98.9817 221.064 90.1888 247.508 114.52L182.067 49.8381L147.457 84.0459C147.335 82.9618 147.091 81.9982 146.726 80.9142C145.751 78.1438 144.045 75.4939 141.607 73.4463L162.568 52.7289C168.54 39.5998 174.755 31.0479 177.558 27.5548C177.192 27.6753 176.826 27.9162 176.461 28.0366L174.998 28.7593C173.902 29.3616 172.683 29.9638 171.343 30.807C170.977 29.8434 170.733 28.7593 170.489 27.6753C170.246 29.0002 170.124 30.4456 170.002 31.7706C164.396 34.3 155.622 39.9612 155.622 39.9612C155.378 30.2047 164.031 22.7368 164.031 22.7368C165.371 22.6164 166.833 22.496 168.174 22.496C167.443 22.1346 166.833 21.7732 166.102 21.4119C168.418 20.0869 170.368 19.6052 172.074 19.4847C170.124 18.0393 168.174 16.7144 166.224 15.6303L168.661 11.6555L163.056 13.944C162.203 13.5826 161.35 13.1009 160.618 12.86L159.765 12.4986C159.522 12.3782 159.278 12.2577 159.034 12.2577L161.228 8.76465L156.231 11.2941C151.844 9.96915 149.163 9.84871 149.163 9.84871C149.163 9.84871 151.235 11.0532 153.306 12.86C122.84 24.3027 101.27 53.4516 101.27 87.5389C101.27 131.624 137.464 167.397 182.067 167.397C213.63 167.397 240.928 149.45 254.211 123.433C243.609 120.422 233.981 121.988 233.981 121.988ZM183.529 78.2643V70.6759V65.3761C189.622 66.0988 194.375 71.1577 194.375 77.4211V79.1074H183.529V78.2643ZM183.529 81.8778H194.375V92.5978H183.529V81.8778ZM169.88 77.4211C169.88 71.1577 174.633 66.0988 180.726 65.3761V70.6759V78.0234V79.1074H169.88V77.4211ZM169.88 81.8778H180.726V92.5978H169.88V81.8778Z" fill="#E5542C"/>
<path d="M184.87 14.3059C192.669 7.44025 204.977 13.7036 208.999 16.1126C205.952 15.9922 203.149 15.9922 200.59 16.2331L197.422 14.4264L199.615 16.2331C197.544 16.474 195.594 16.8353 193.888 17.3171L193.156 17.558C192.425 17.7989 191.816 17.9194 191.207 18.1603L188.038 15.149L189.988 18.5216C183.529 21.0511 180.848 24.4237 180.848 24.4237C207.536 8.52429 217.773 37.4323 217.773 37.4323C217.773 37.4323 215.092 35.5051 210.827 33.2165L208.877 28.8803L208.633 32.1325C207.78 31.6507 206.927 31.2893 206.074 30.8075L202.784 26.2304L204.246 29.9644C202.54 29.1212 200.712 28.3985 198.884 27.6758C205.709 34.3006 200.712 48.1523 200.712 48.1523C200.712 48.1523 199.981 45.7433 197.787 42.1298L198.884 36.7096L196.203 39.8413C196.081 39.6004 195.959 39.4799 195.716 39.239L195.228 38.5163C194.741 37.9141 194.131 37.3118 193.644 36.5891L194.375 30.6871L191.328 34.1801C189.744 32.6143 183.895 28.6394 180.726 27.194C176.948 32.4938 173.536 38.3959 170.611 44.4184L182.067 33.0961L259.573 110.064C261.645 102.957 262.863 95.3687 262.863 87.5395C262.863 84.6487 262.741 81.8783 262.376 79.108L236.906 73.5673H261.645H291.989L260.06 66.7016C258.476 61.1609 256.404 55.7407 253.723 50.6818L223.013 46.2251H251.286H275.537L247.143 40.0822C232.763 20.8102 209.852 8.2834 184.017 7.68115C184.87 9.4879 185.357 11.656 184.87 14.3059Z" fill="#E5542C"/>
<path d="M171.83 7.44018C175.12 10.0901 177.801 15.0285 178.898 23.5805C179.142 23.9418 179.263 24.3032 179.385 24.6645C179.385 24.5441 179.385 24.4236 179.507 24.3032C179.507 19.4852 178.776 15.5103 177.801 12.1377L180.604 11.2946L177.192 10.331C176.704 8.88557 176.095 7.56062 175.486 6.47657L177.435 5.87432L174.876 5.27207C173.17 2.26083 171.586 0.81543 171.586 0.81543C171.586 0.93588 172.195 3.94713 171.83 7.44018Z" fill="#E5542C"/>
<path d="M34.366 263.884L30.1007 270.991H0L0.121873 268.702C1.70612 268.461 3.53408 267.136 3.53408 262.318V241.119C3.53408 238.349 1.82799 237.506 0.121873 237.385L0.365581 235.097H17.0611L17.3049 237.385C15.7206 237.506 13.8926 238.349 13.8926 241.119V266.775H22.1795C26.0792 266.534 29.857 265.571 32.6599 262.439L34.366 263.884Z" fill="#E5542C"/>
<path d="M34.3662 256.296C34.3662 247.985 40.2157 241.12 49.8431 241.12C59.3486 241.12 65.32 247.865 65.32 256.296C65.32 264.728 59.4704 271.473 49.8431 271.473C40.3376 271.473 34.3662 264.607 34.3662 256.296ZM54.9614 256.296C54.9614 249.912 52.646 244.613 49.9649 244.613C47.2839 244.613 44.9685 249.912 44.9685 256.296C44.9685 262.68 47.2839 267.98 49.9649 267.98C52.646 267.98 54.9614 262.68 54.9614 256.296Z" fill="#E5542C"/>
<path d="M83.3557 263.885C83.3557 261.476 76.8969 258.946 72.0223 255.935C68.4882 253.767 66.4164 250.997 67.3914 247.865C68.7319 243.167 74.7033 241.12 80.7965 241.12C86.5242 241.12 90.6676 243.408 91.2769 246.419C92.2519 252.081 83.5995 252.321 84.3307 246.781C84.5744 244.854 82.3808 244.01 80.0654 244.01C77.8718 244.01 75.9219 244.974 75.9219 246.66C75.9219 248.949 81.8933 250.756 88.2303 255.092C91.0332 257.019 92.4956 259.187 92.4956 261.837C92.4956 266.173 88.474 271.353 79.0904 271.353C71.6567 271.353 65.8071 268.341 65.8071 263.282C65.8071 261.476 67.2695 258.705 70.8036 258.705C73.119 258.705 74.8251 260.151 74.8251 261.837C74.8251 263.282 73.119 263.885 73.119 264.969C73.119 267.016 75.6782 268.1 78.2374 268.1C81.5278 268.1 83.3557 266.294 83.3557 263.885Z" fill="#E5542C"/>
<path d="M142.46 263.884L138.195 270.991H108.094L108.216 268.702C109.8 268.461 111.628 267.136 111.628 262.318V241.119C111.628 238.349 109.922 237.506 108.216 237.385L108.46 235.097H138.439L141.607 242.444L139.535 243.649C137.22 239.433 135.148 238.71 122.596 238.71H122.109V249.912L131.614 248.948L132.467 254.007C129.177 253.526 125.643 253.405 121.987 253.285V266.895H130.274C134.173 266.655 137.951 265.691 140.754 262.559L142.46 263.884Z" fill="#E5542C"/>
<path d="M147.701 261.716V241.36C147.701 235.94 145.629 235.338 144.045 234.374C147.092 230.52 155.378 230.279 157.694 231.363V261.716C157.694 267.257 159.4 268.341 161.106 268.702L161.228 270.991H144.167L144.289 268.702C145.873 268.341 147.701 267.257 147.701 261.716Z" fill="#E5542C"/>
<path d="M192.303 265.691C189.013 269.907 183.651 272.196 178.045 272.196C169.027 272.196 161.837 265.209 161.837 256.417C161.837 247.624 169.149 240.638 178.045 240.638C187.063 240.638 192.791 245.094 192.06 250.755C191.572 254.128 189.135 256.296 184.869 257.621C181.823 258.585 177.801 259.067 173.049 258.103C173.17 262.921 177.436 266.534 181.945 266.775C184.748 267.016 188.282 265.812 190.353 263.403L192.303 265.691ZM173.17 254.61C180.726 256.055 183.773 252.924 184.748 250.033C185.723 246.901 183.041 244.492 180.482 244.853C175.851 245.215 173.902 249.671 173.17 254.61Z" fill="#E5542C"/>
<path d="M221.917 235.217C221.917 240.517 212.411 240.156 212.411 235.097C212.411 233.893 212.411 231.243 210.583 231.243C208.39 231.243 207.415 234.615 207.415 238.229V241.601H215.701V245.215H207.415V251.478V261.716C207.415 267.257 209.121 268.341 210.827 268.703L210.949 270.991H193.522L193.644 268.703C195.228 268.462 197.056 267.137 197.056 262.319V245.335H193.522V241.722H197.056C197.3 238.229 198.64 234.856 200.834 232.688C203.637 229.797 206.805 228.472 211.436 228.472C217.773 228.352 221.917 230.64 221.917 235.217Z" fill="#E5542C"/>
<path d="M254.577 267.739C251.652 270.991 248.971 271.955 245.559 271.955C241.781 271.955 238.49 270.269 237.759 266.775C237.759 266.896 237.759 266.896 237.637 267.016C236.297 269.907 232.032 272.075 227.401 271.955C220.332 271.955 216.798 268.1 216.798 263.403C216.798 259.187 220.211 256.176 225.329 254.61C228.863 253.526 233.25 253.285 237.637 253.285V250.274C237.637 246.54 235.2 244.854 233.006 244.854C231.178 244.854 229.472 246.058 229.472 248.347C229.472 252.442 220.089 252.803 219.967 248.467C219.967 244.131 225.816 240.758 233.494 240.758C243.365 240.758 247.996 246.901 247.996 254.73V263.403C247.996 267.86 250.555 267.739 252.505 265.571L254.577 267.739ZM237.637 257.26V256.176C233.738 256.176 227.035 256.537 227.035 262.078C227.035 264.367 228.376 266.294 231.666 266.294C234.225 266.294 237.394 264.367 237.637 257.26Z" fill="#E5542C"/>
<path d="M277.487 261.716V251.598C277.487 246.178 275.781 245.094 274.563 245.094C271.394 245.094 268.835 250.755 268.835 256.296V261.596C268.835 267.137 270.663 268.221 272.247 268.582V270.87H255.308L255.43 268.582C257.014 268.341 258.842 267.137 258.842 261.596V251.478C258.842 246.058 256.77 245.456 255.186 244.492C258.233 240.638 266.52 240.397 268.835 241.481V246.178C270.297 243.167 274.684 240.517 278.34 240.517C282.362 240.517 287.48 243.047 287.48 251.478V261.475C287.48 267.016 289.308 268.1 290.893 268.461L291.014 270.75H274.075V268.461C275.659 268.341 277.487 267.257 277.487 261.716Z" fill="#E5542C"/>
<path d="M312.097 267.739C309.172 270.991 306.491 271.955 303.079 271.955C298.813 271.955 295.157 269.787 295.157 265.33V260.271V245.335H291.501V242.806C298.692 240.517 301.738 236.663 304.297 233.17H305.516V241.722H311V245.335H305.516V263.403C305.516 267.859 308.075 267.739 310.025 265.571L312.097 267.739Z" fill="#E5542C"/>
<path d="M342.563 265.691C339.273 269.907 333.911 272.196 328.305 272.196C319.287 272.196 312.097 265.209 312.097 256.417C312.097 247.624 319.409 240.638 328.305 240.638C337.323 240.638 343.051 245.094 342.319 250.755C341.832 254.128 339.395 256.296 335.129 257.621C332.083 258.585 328.061 259.067 323.308 258.103C323.43 262.921 327.695 266.534 332.204 266.775C335.007 267.016 338.541 265.812 340.613 263.403L342.563 265.691ZM323.552 254.61C331.108 256.055 334.154 252.924 335.129 250.033C336.104 246.901 333.423 244.492 330.864 244.853C326.233 245.215 324.283 249.671 323.552 254.61Z" fill="#E5542C"/>
<path d="M361.208 263.885C361.208 261.476 354.749 258.946 349.875 255.935C346.341 253.767 344.269 250.997 345.244 247.865C346.584 243.167 352.556 241.12 358.649 241.12C364.377 241.12 368.52 243.408 369.13 246.419C370.104 252.081 361.452 252.321 362.183 246.781C362.427 244.854 360.233 244.01 357.918 244.01C355.724 244.01 353.774 244.974 353.774 246.66C353.774 248.949 359.746 250.756 366.083 255.092C368.886 257.019 370.348 259.187 370.348 261.837C370.348 266.173 366.327 271.353 356.943 271.353C349.509 271.353 343.66 268.341 343.66 263.282C343.66 261.476 345.122 258.705 348.656 258.705C350.972 258.705 352.678 260.151 352.678 261.837C352.678 263.282 350.972 263.885 350.972 264.969C350.972 267.016 353.531 268.1 356.09 268.1C359.38 268.1 361.208 266.294 361.208 263.885Z" fill="#E5542C"/>
<path d="M80.7967 296.527H74.3379V283.157H80.6749C83.4778 283.157 85.1839 284.482 85.1839 286.65C85.1839 288.216 84.3308 289.059 83.3559 289.541C84.9402 290.143 85.9151 290.986 85.9151 292.793C85.9151 295.322 83.8434 296.527 80.7967 296.527ZM82.2591 287.132C82.2591 286.288 81.5279 285.807 80.3093 285.807H77.3845V288.577H80.1874C81.4061 288.577 82.2591 288.095 82.2591 287.132ZM82.9903 292.431C82.9903 291.588 82.2591 290.986 80.7967 290.986H77.3845V293.877H80.9186C82.1373 293.877 82.9903 293.515 82.9903 292.431Z" fill="#03576B"/>
<path d="M96.0303 296.527V283.157H106.267V285.807H99.0769V288.457H105.414V291.106H99.0769V293.877H106.389V296.527H96.0303Z" fill="#03576B"/>
<path d="M126.74 296.527L125.521 293.515H119.794L118.575 296.527H115.528L121.378 283.036H124.181L130.03 296.527H126.74ZM122.718 286.529L120.89 290.865H124.425L122.718 286.529Z" fill="#03576B"/>
<path d="M145.142 296.767C141.12 296.767 138.195 293.756 138.195 289.902C138.195 286.047 141.12 283.036 145.264 283.036C147.823 283.036 149.285 283.879 150.626 285.084L148.676 287.252C147.579 286.288 146.604 285.686 145.264 285.686C142.948 285.686 141.364 287.613 141.364 289.902C141.364 292.19 142.948 294.118 145.264 294.118C146.848 294.118 147.701 293.515 148.798 292.552L150.747 294.479C149.285 295.804 147.823 296.767 145.142 296.767Z" fill="#03576B"/>
<path d="M169.271 296.527V291.106H163.787V296.527H160.862V283.157H163.787V288.457H169.271V283.157H172.196V296.527H169.271Z" fill="#03576B"/>
<path d="M205.221 296.527V291.106H199.737V296.527H196.812V283.157H199.737V288.457H205.221V283.157H208.146V296.527H205.221Z" fill="#03576B"/>
<path d="M225.694 296.767C221.551 296.767 218.504 293.636 218.504 289.902C218.504 286.047 221.551 283.036 225.694 283.036C229.838 283.036 232.885 286.168 232.885 289.902C232.885 293.636 229.838 296.767 225.694 296.767ZM229.716 289.781C229.716 287.493 228.01 285.566 225.573 285.566C223.135 285.566 221.551 287.493 221.551 289.781C221.551 292.07 223.257 293.997 225.694 293.997C228.132 293.997 229.716 292.19 229.716 289.781Z" fill="#03576B"/>
<path d="M248.849 296.768C245.193 296.768 243 294.72 243 290.866V283.277H245.924V290.866C245.924 293.034 247.021 294.118 248.849 294.118C250.677 294.118 251.774 293.034 251.774 290.866V283.157H254.699V290.745C254.82 294.72 252.505 296.768 248.849 296.768Z" fill="#03576B"/>
<path d="M270.297 296.647C268.225 296.647 266.154 295.924 264.569 294.479L266.275 292.431C267.494 293.395 268.713 293.997 270.297 293.997C271.516 293.997 272.247 293.515 272.247 292.793C272.247 292.07 271.759 291.709 269.566 291.106C266.885 290.384 265.057 289.661 265.057 287.011C265.057 284.602 267.007 283.036 269.81 283.036C271.759 283.036 273.465 283.638 274.806 284.722L273.222 286.891C272.003 286.047 270.784 285.566 269.688 285.566C268.591 285.566 267.982 286.047 267.982 286.77C267.982 287.613 268.591 287.975 270.906 288.577C273.709 289.3 275.172 290.263 275.172 292.552C275.293 295.202 273.222 296.647 270.297 296.647Z" fill="#03576B"/>
<path d="M285.652 296.527V283.157H295.889V285.807H288.699V288.457H295.036V291.106H288.699V293.877H296.011V296.527H285.652Z" fill="#03576B"/>
<path d="M130.761 109.228C130.639 109.228 130.639 109.228 130.518 109.106C130.639 109.228 130.761 109.228 130.761 109.228Z" fill="#F3EBCB"/>
<path d="M270.906 133.919C268.591 129.462 265.544 125.969 262.742 123.922C253.48 117.056 229.472 120.067 229.472 120.067C229.472 120.067 216.189 98.7476 176.705 110.07C163.909 113.804 153.307 115.49 144.776 116.213C127.227 117.538 113.579 109.347 107.242 96.5794C102.854 87.6662 102.489 77.0666 106.998 68.2737C110.654 61.0467 117.966 53.8197 132.224 56.3492C136.367 57.6741 139.17 56.3492 140.876 54.9038C140.876 54.9038 146.117 49.3631 138.317 43.9429C130.518 38.6431 117.234 42.0157 117.234 42.0157C87.6212 47.9177 83.4778 76.103 83.2341 78.7529C82.8685 82.2459 82.8685 85.8594 83.1122 89.8343C85.7933 123.44 114.188 144.398 125.765 151.625C104.804 154.636 85.4277 145.121 76.2878 139.58C75.0691 138.857 73.7286 140.303 74.5817 141.387C106.388 183.303 156.963 160.779 156.963 160.779C156.963 160.779 150.504 166.2 140.023 170.536C147.091 174.751 153.916 179.449 160.253 184.749L161.106 185.472L163.421 187.399C167.565 190.892 172.318 193.542 177.558 195.108C182.798 196.673 187.673 196.794 187.794 192.939C188.891 164.152 201.931 156.684 201.931 156.684C195.959 165.236 193.766 176.799 195.228 185.231C199.494 210.766 185.966 207.153 190.963 211.368C195.228 214.861 203.759 217.752 213.995 217.391C230.204 216.788 236.906 213.295 248.483 203.419C253.724 198.962 258.476 193.662 260.426 188.483C265.423 174.992 260.182 167.404 268.957 153.311C273.953 145.121 272.856 138.376 270.906 133.919ZM184.504 138.376C181.823 138.496 179.508 136.569 179.386 133.919C179.264 131.269 181.214 128.98 183.895 128.86C186.576 128.74 188.891 130.667 189.013 133.317C189.135 135.967 187.185 138.255 184.504 138.376Z" fill="#03576B"/>
<path d="M131.98 42.3771C131.98 42.3771 134.539 38.6431 139.17 39.4863C142.704 40.0885 144.776 46.3519 142.46 52.3744L133.321 50.3268L131.98 42.3771Z" fill="#03576B"/>
</svg>
