<svg width="58" height="37" viewBox="0 0 58 37" fill="none" xmlns="http://www.w3.org/2000/svg">
<path d="M32.9543 23.6746C32.6656 19.4293 33.6121 15.1915 35.6741 11.4959C37.6516 8.06949 40.4641 5.22685 43.837 3.24675C45.5878 2.19636 47.4528 1.35921 49.3941 0.75296C49.898 0.59639 50.4066 0.453556 50.9197 0.324463C51.403 0.184685 51.8956 0.0804482 52.3935 0.013504C53.3151 -0.073288 54.223 0.288483 54.8447 0.989986C55.4665 1.69148 55.73 2.65143 55.5562 3.58169C55.3823 4.51195 54.7915 5.3046 53.9605 5.72178C53.5567 5.89471 53.1342 6.01813 52.7019 6.08922C51.6785 6.32386 50.6733 6.63525 49.6944 7.02059C45.9337 8.42581 42.761 11.1141 40.7101 14.6328C41.1324 14.3814 41.5703 14.1581 42.0205 13.964C43.9157 13.1646 45.9847 12.8949 48.0156 13.1823C50.0462 13.4699 51.9657 14.3045 53.5777 15.6008C55.7107 17.339 57.1852 19.7835 57.7477 22.5141C58.3102 25.2445 57.9256 28.0903 56.66 30.5618C55.3944 33.0335 53.3269 34.9765 50.8132 36.057C48.845 36.8606 46.7143 37.1574 44.608 36.9212C42.5018 36.685 40.4842 35.9233 38.7329 34.7031C37.2164 33.5972 35.9412 32.1811 34.9879 30.5442C34.0402 28.8696 33.3978 27.0327 33.092 25.1231C33.0332 24.6414 32.9854 24.1587 32.9543 23.6746ZM0.0335083 23.3861C-0.198952 19.1775 0.782043 14.9918 2.85458 11.3487C4.85211 7.95014 7.67297 5.13652 11.0441 3.18043C12.802 2.13741 14.6731 1.30903 16.6193 0.712376C17.1256 0.556892 17.6357 0.416897 18.1496 0.29195C18.6218 0.153259 19.1048 0.0570908 19.5934 0.00475693C20.3743 -0.0401649 21.1407 0.234383 21.7235 0.768215C22.3064 1.30204 22.6578 2.05106 22.7004 2.8503C22.743 3.64971 22.4735 4.43343 21.9508 5.02896C21.6915 5.32553 21.377 5.56606 21.0259 5.73682C20.6016 5.91062 20.1597 6.03579 19.7085 6.10993C18.6881 6.34871 17.686 6.6636 16.7103 7.05197C12.9833 8.46371 9.84134 11.1389 7.80677 14.6324C8.22887 14.3807 8.66674 14.1572 9.11713 13.9636C11.0192 13.1616 13.0958 12.8929 15.133 13.1854C17.1702 13.4778 19.0944 14.3208 20.7076 15.6274C22.8456 17.3829 24.3152 19.8492 24.8612 22.5977C25.4073 25.3466 24.9955 28.2042 23.6972 30.6749C22.399 33.1454 20.2964 35.0724 17.7544 36.1213C15.7714 36.8994 13.6317 37.1663 11.5242 36.8985C9.41643 36.6307 7.40548 35.8365 5.66862 34.5859C4.15818 33.4476 2.89658 31.9994 1.96395 30.3341C1.48113 29.4693 1.08865 28.5547 0.792686 27.6059C0.500565 26.7722 0.294743 25.9095 0.178173 25.0319C0.111481 24.4843 0.0635338 23.9356 0.0343475 23.3857L0.0335083 23.3861Z" fill="white" fill-opacity="0.49"/>
<path d="M32.9543 23.6746C32.6656 19.4293 33.6121 15.1915 35.6741 11.4959C37.6516 8.06949 40.4641 5.22685 43.837 3.24675C45.5878 2.19636 47.4528 1.35921 49.3941 0.75296C49.898 0.59639 50.4066 0.453556 50.9197 0.324463C51.403 0.184685 51.8956 0.0804482 52.3935 0.013504C53.3151 -0.073288 54.223 0.288483 54.8447 0.989986C55.4665 1.69148 55.73 2.65143 55.5562 3.58169C55.3823 4.51195 54.7915 5.3046 53.9605 5.72178C53.5567 5.89471 53.1342 6.01813 52.7019 6.08922C51.6785 6.32386 50.6733 6.63525 49.6944 7.02059C45.9337 8.42581 42.761 11.1141 40.7101 14.6328C41.1324 14.3814 41.5703 14.1581 42.0205 13.964C43.9157 13.1646 45.9847 12.8949 48.0156 13.1823C50.0462 13.4699 51.9657 14.3045 53.5777 15.6008C55.7107 17.339 57.1852 19.7835 57.7477 22.5141C58.3102 25.2445 57.9256 28.0903 56.66 30.5618C55.3944 33.0335 53.3269 34.9765 50.8132 36.057C48.845 36.8606 46.7143 37.1574 44.608 36.9212C42.5018 36.685 40.4842 35.9233 38.7329 34.7031C37.2164 33.5972 35.9412 32.1811 34.9879 30.5442C34.0402 28.8696 33.3978 27.0327 33.092 25.1231C33.0332 24.6414 32.9854 24.1587 32.9543 23.6746ZM0.0335083 23.3861C-0.198952 19.1775 0.782043 14.9918 2.85458 11.3487C4.85211 7.95014 7.67297 5.13652 11.0441 3.18043C12.802 2.13741 14.6731 1.30903 16.6193 0.712376C17.1256 0.556892 17.6357 0.416897 18.1496 0.29195C18.6218 0.153259 19.1048 0.0570908 19.5934 0.00475693C20.3743 -0.0401649 21.1407 0.234383 21.7235 0.768215C22.3064 1.30204 22.6578 2.05106 22.7004 2.8503C22.743 3.64971 22.4735 4.43343 21.9508 5.02896C21.6915 5.32553 21.377 5.56606 21.0259 5.73682C20.6016 5.91062 20.1597 6.03579 19.7085 6.10993C18.6881 6.34871 17.686 6.6636 16.7103 7.05197C12.9833 8.46371 9.84134 11.1389 7.80677 14.6324C8.22887 14.3807 8.66674 14.1572 9.11713 13.9636C11.0192 13.1616 13.0958 12.8929 15.133 13.1854C17.1702 13.4778 19.0944 14.3208 20.7076 15.6274C22.8456 17.3829 24.3152 19.8492 24.8612 22.5977C25.4073 25.3466 24.9955 28.2042 23.6972 30.6749C22.399 33.1454 20.2964 35.0724 17.7544 36.1213C15.7714 36.8994 13.6317 37.1663 11.5242 36.8985C9.41643 36.6307 7.40548 35.8365 5.66862 34.5859C4.15818 33.4476 2.89658 31.9994 1.96395 30.3341C1.48113 29.4693 1.08865 28.5547 0.792686 27.6059C0.500565 26.7722 0.294743 25.9095 0.178173 25.0319C0.111481 24.4843 0.0635338 23.9356 0.0343475 23.3857L0.0335083 23.3861Z" fill="white" fill-opacity="0.49"/>
<path d="M32.9543 23.6746C32.6656 19.4293 33.6121 15.1915 35.6741 11.4959C37.6516 8.06949 40.4641 5.22685 43.837 3.24675C45.5878 2.19636 47.4528 1.35921 49.3941 0.75296C49.898 0.59639 50.4066 0.453556 50.9197 0.324463C51.403 0.184685 51.8956 0.0804482 52.3935 0.013504C53.3151 -0.073288 54.223 0.288483 54.8447 0.989986C55.4665 1.69148 55.73 2.65143 55.5562 3.58169C55.3823 4.51195 54.7915 5.3046 53.9605 5.72178C53.5567 5.89471 53.1342 6.01813 52.7019 6.08922C51.6785 6.32386 50.6733 6.63525 49.6944 7.02059C45.9337 8.42581 42.761 11.1141 40.7101 14.6328C41.1324 14.3814 41.5703 14.1581 42.0205 13.964C43.9157 13.1646 45.9847 12.8949 48.0156 13.1823C50.0462 13.4699 51.9657 14.3045 53.5777 15.6008C55.7107 17.339 57.1852 19.7835 57.7477 22.5141C58.3102 25.2445 57.9256 28.0903 56.66 30.5618C55.3944 33.0335 53.3269 34.9765 50.8132 36.057C48.845 36.8606 46.7143 37.1574 44.608 36.9212C42.5018 36.685 40.4842 35.9233 38.7329 34.7031C37.2164 33.5972 35.9412 32.1811 34.9879 30.5442C34.0402 28.8696 33.3978 27.0327 33.092 25.1231C33.0332 24.6414 32.9854 24.1587 32.9543 23.6746ZM0.0335083 23.3861C-0.198952 19.1775 0.782043 14.9918 2.85458 11.3487C4.85211 7.95014 7.67297 5.13652 11.0441 3.18043C12.802 2.13741 14.6731 1.30903 16.6193 0.712376C17.1256 0.556892 17.6357 0.416897 18.1496 0.29195C18.6218 0.153259 19.1048 0.0570908 19.5934 0.00475693C20.3743 -0.0401649 21.1407 0.234383 21.7235 0.768215C22.3064 1.30204 22.6578 2.05106 22.7004 2.8503C22.743 3.64971 22.4735 4.43343 21.9508 5.02896C21.6915 5.32553 21.377 5.56606 21.0259 5.73682C20.6016 5.91062 20.1597 6.03579 19.7085 6.10993C18.6881 6.34871 17.686 6.6636 16.7103 7.05197C12.9833 8.46371 9.84134 11.1389 7.80677 14.6324C8.22887 14.3807 8.66674 14.1572 9.11713 13.9636C11.0192 13.1616 13.0958 12.8929 15.133 13.1854C17.1702 13.4778 19.0944 14.3208 20.7076 15.6274C22.8456 17.3829 24.3152 19.8492 24.8612 22.5977C25.4073 25.3466 24.9955 28.2042 23.6972 30.6749C22.399 33.1454 20.2964 35.0724 17.7544 36.1213C15.7714 36.8994 13.6317 37.1663 11.5242 36.8985C9.41643 36.6307 7.40548 35.8365 5.66862 34.5859C4.15818 33.4476 2.89658 31.9994 1.96395 30.3341C1.48113 29.4693 1.08865 28.5547 0.792686 27.6059C0.500565 26.7722 0.294743 25.9095 0.178173 25.0319C0.111481 24.4843 0.0635338 23.9356 0.0343475 23.3857L0.0335083 23.3861Z" fill="white" fill-opacity="0.49"/>
<path d="M32.9543 23.6746C32.6656 19.4293 33.6121 15.1915 35.6741 11.4959C37.6516 8.06949 40.4641 5.22685 43.837 3.24675C45.5878 2.19636 47.4528 1.35921 49.3941 0.75296C49.898 0.59639 50.4066 0.453556 50.9197 0.324463C51.403 0.184685 51.8956 0.0804482 52.3935 0.013504C53.3151 -0.073288 54.223 0.288483 54.8447 0.989986C55.4665 1.69148 55.73 2.65143 55.5562 3.58169C55.3823 4.51195 54.7915 5.3046 53.9605 5.72178C53.5567 5.89471 53.1342 6.01813 52.7019 6.08922C51.6785 6.32386 50.6733 6.63525 49.6944 7.02059C45.9337 8.42581 42.761 11.1141 40.7101 14.6328C41.1324 14.3814 41.5703 14.1581 42.0205 13.964C43.9157 13.1646 45.9847 12.8949 48.0156 13.1823C50.0462 13.4699 51.9657 14.3045 53.5777 15.6008C55.7107 17.339 57.1852 19.7835 57.7477 22.5141C58.3102 25.2445 57.9256 28.0903 56.66 30.5618C55.3944 33.0335 53.3269 34.9765 50.8132 36.057C48.845 36.8606 46.7143 37.1574 44.608 36.9212C42.5018 36.685 40.4842 35.9233 38.7329 34.7031C37.2164 33.5972 35.9412 32.1811 34.9879 30.5442C34.0402 28.8696 33.3978 27.0327 33.092 25.1231C33.0332 24.6414 32.9854 24.1587 32.9543 23.6746ZM0.0335083 23.3861C-0.198952 19.1775 0.782043 14.9918 2.85458 11.3487C4.85211 7.95014 7.67297 5.13652 11.0441 3.18043C12.802 2.13741 14.6731 1.30903 16.6193 0.712376C17.1256 0.556892 17.6357 0.416897 18.1496 0.29195C18.6218 0.153259 19.1048 0.0570908 19.5934 0.00475693C20.3743 -0.0401649 21.1407 0.234383 21.7235 0.768215C22.3064 1.30204 22.6578 2.05106 22.7004 2.8503C22.743 3.64971 22.4735 4.43343 21.9508 5.02896C21.6915 5.32553 21.377 5.56606 21.0259 5.73682C20.6016 5.91062 20.1597 6.03579 19.7085 6.10993C18.6881 6.34871 17.686 6.6636 16.7103 7.05197C12.9833 8.46371 9.84134 11.1389 7.80677 14.6324C8.22887 14.3807 8.66674 14.1572 9.11713 13.9636C11.0192 13.1616 13.0958 12.8929 15.133 13.1854C17.1702 13.4778 19.0944 14.3208 20.7076 15.6274C22.8456 17.3829 24.3152 19.8492 24.8612 22.5977C25.4073 25.3466 24.9955 28.2042 23.6972 30.6749C22.399 33.1454 20.2964 35.0724 17.7544 36.1213C15.7714 36.8994 13.6317 37.1663 11.5242 36.8985C9.41643 36.6307 7.40548 35.8365 5.66862 34.5859C4.15818 33.4476 2.89658 31.9994 1.96395 30.3341C1.48113 29.4693 1.08865 28.5547 0.792686 27.6059C0.500565 26.7722 0.294743 25.9095 0.178173 25.0319C0.111481 24.4843 0.0635338 23.9356 0.0343475 23.3857L0.0335083 23.3861Z" fill="white" fill-opacity="0.49"/>
</svg>
